<?xml version="1.0" encoding="UTF-8" standalone="no"?>
<!-- Created with Inkscape (http://www.inkscape.org/) -->

<svg
   width="180"
   height="180"
   viewBox="0 0 180 180"
   version="1.1"
   id="svg5"
   sodipodi:docname="icon.svg"
   inkscape:version="1.1.1 (3bf5ae0d25, 2021-09-20)"
   xmlns:inkscape="http://www.inkscape.org/namespaces/inkscape"
   xmlns:sodipodi="http://sodipodi.sourceforge.net/DTD/sodipodi-0.dtd"
   xmlns="http://www.w3.org/2000/svg"
   xmlns:svg="http://www.w3.org/2000/svg">
  <sodipodi:namedview
     id="namedview7"
     pagecolor="#ffffff"
     bordercolor="#666666"
     borderopacity="1.0"
     inkscape:pageshadow="2"
     inkscape:pageopacity="0.0"
     inkscape:pagecheckerboard="0"
     inkscape:document-units="px"
     showgrid="false"
     inkscape:snap-smooth-nodes="true"
     inkscape:object-nodes="false"
     inkscape:snap-page="true"
     inkscape:zoom="2.8284271"
     inkscape:cx="43.663844"
     inkscape:cy="176.95347"
     inkscape:window-width="1920"
     inkscape:window-height="1017"
     inkscape:window-x="-8"
     inkscape:window-y="-8"
     inkscape:window-maximized="1"
     inkscape:current-layer="layer4" />
  <defs
     id="defs2">
    <marker
       style="overflow:visible"
       id="marker3906"
       refX="0.0"
       refY="0.0"
       orient="auto"
       inkscape:stockid="Arrow1Lstart"
       inkscape:isstock="true">
      <path
         transform="scale(0.8) translate(12.5,0)"
         style="fill-rule:evenodd;fill:context-stroke;stroke:context-stroke;stroke-width:1.0pt"
         d="M 0.0,0.0 L 5.0,-5.0 L -12.5,0.0 L 5.0,5.0 L 0.0,0.0 z "
         id="path3904" />
    </marker>
    <marker
       style="overflow:visible"
       id="Arrow1Lstart"
       refX="0.0"
       refY="0.0"
       orient="auto"
       inkscape:stockid="Arrow1Lstart"
       inkscape:isstock="true">
      <path
         transform="scale(0.8) translate(12.5,0)"
         style="fill-rule:evenodd;fill:context-stroke;stroke:context-stroke;stroke-width:1.0pt"
         d="M 0.0,0.0 L 5.0,-5.0 L -12.5,0.0 L 5.0,5.0 L 0.0,0.0 z "
         id="path3601" />
    </marker>
    <marker
       style="overflow:visible;"
       id="Arrow2Send"
       refX="0.0"
       refY="0.0"
       orient="auto"
       inkscape:stockid="Arrow2Send"
       inkscape:isstock="true">
      <path
         transform="scale(0.3) rotate(180) translate(-2.3,0)"
         d="M 8.7185878,4.0337352 L -2.2072895,0.016013256 L 8.7185884,-4.0017078 C 6.9730900,-1.6296469 6.9831476,1.6157441 8.7185878,4.0337352 z "
         style="stroke:context-stroke;fill-rule:evenodd;fill:context-stroke;stroke-width:0.62500000;stroke-linejoin:round;"
         id="path3634" />
    </marker>
    <marker
       style="overflow:visible"
       id="DiamondMend"
       refX="0.0"
       refY="0.0"
       orient="auto"
       inkscape:stockid="DiamondMend"
       inkscape:isstock="true">
      <path
         transform="scale(0.4) translate(-6.5,0)"
         style="fill-rule:evenodd;fill:context-stroke;stroke:context-stroke;stroke-width:1.0pt"
         d="M 0,-7.0710768 L -7.0710894,0 L 0,7.0710589 L 7.0710462,0 L 0,-7.0710768 z "
         id="path3701" />
    </marker>
    <marker
       style="overflow:visible"
       id="Tail"
       refX="0.0"
       refY="0.0"
       orient="auto"
       inkscape:stockid="Tail"
       inkscape:isstock="true">
      <g
         transform="scale(-1.2)"
         id="g3557">
        <path
           style="fill:none;fill-rule:evenodd;stroke:context-stroke;stroke-width:0.8;stroke-linecap:round"
           d="M -3.8048674,-3.9585227 L 0.54352094,0"
           id="path3545" />
        <path
           style="fill:none;fill-rule:evenodd;stroke:context-stroke;stroke-width:0.8;stroke-linecap:round"
           d="M -1.2866832,-3.9585227 L 3.0617053,0"
           id="path3547" />
        <path
           style="fill:none;fill-rule:evenodd;stroke:context-stroke;stroke-width:0.8;stroke-linecap:round"
           d="M 1.3053582,-3.9585227 L 5.6537466,0"
           id="path3549" />
        <path
           style="fill:none;fill-rule:evenodd;stroke:context-stroke;stroke-width:0.8;stroke-linecap:round"
           d="M -3.8048674,4.1775838 L 0.54352094,0.21974226"
           id="path3551" />
        <path
           style="fill:none;fill-rule:evenodd;stroke:context-stroke;stroke-width:0.8;stroke-linecap:round"
           d="M -1.2866832,4.1775838 L 3.0617053,0.21974226"
           id="path3553" />
        <path
           style="fill:none;fill-rule:evenodd;stroke:context-stroke;stroke-width:0.8;stroke-linecap:round"
           d="M 1.3053582,4.1775838 L 5.6537466,0.21974226"
           id="path3555" />
      </g>
    </marker>
  </defs>
  <g
     inkscape:groupmode="layer"
     id="layer4"
     inkscape:label="Bottom">
    <path
       sodipodi:type="star"
       style="fill:#fc4c39;fill-opacity:1;stroke:#000000;stroke-width:5.8;stroke-linecap:butt;stroke-linejoin:round;stroke-miterlimit:4;stroke-dasharray:none;stroke-opacity:1;paint-order:normal"
       id="path943"
       inkscape:flatsided="true"
       sodipodi:sides="8"
       sodipodi:cx="90.846535"
       sodipodi:cy="93.682869"
       sodipodi:r1="92.276405"
       sodipodi:r2="85.252281"
       sodipodi:arg1="0.40059356"
       sodipodi:arg2="0.79329264"
       inkscape:rounded="0"
       inkscape:randomized="0"
       d="M 175.81739,129.66744 125.48507,179.21127 54.861968,178.65372 5.318137,128.3214 5.8756811,57.698303 56.207999,8.1544712 126.8311,8.7120154 176.37493,59.044333 Z"
       transform="matrix(0.00969537,-0.99995299,-0.99995299,-0.00969537,183.04813,183.02502)" />
  </g>
  <g
     inkscape:groupmode="layer"
     id="layer2"
     inkscape:label="Background">
    <path
       style="fill:#feebd2;fill-opacity:1;stroke:none;stroke-width:0.266;stroke-linecap:round;stroke-linejoin:round;stroke-miterlimit:4;stroke-dasharray:none;stroke-opacity:1;paint-order:fill markers stroke"
       d="m 88.450903,56.028562 c -3.518217,0.06605 -7.086217,0.472906 -10.433645,1.581198 -1.589412,1.11037 -2.698585,2.78608 -3.963528,4.235863 -3.42814,4.230564 -6.049896,9.09311 -8.262285,14.009125 -1.883619,3.844707 -5.870783,6.8798 -10.265727,6.81695 -2.554227,0.195447 -4.930469,-1.063053 -6.893637,-2.553104 -1.17263,-0.380966 -1.481491,1.281288 -2.118871,1.942654 -8.494649,12.794029 -16.179509,26.307542 -21.004599,40.946712 -2.05248,6.38763 -3.49368,13.05125 -3.29918,19.79444 -0.0599,5.65041 1.42409,11.52668 5.22995,15.83976 1.38527,1.52427 3.03183,2.89254 4.90572,3.75958 1.17388,0.0427 2.07643,-0.98 3.06249,-1.50055 2.94157,-1.98978 5.39441,-4.66351 7.438932,-7.55035 1.785105,-2.52019 3.092674,-5.40194 4.549415,-8.06597 -1.596271,4.1127 -3.944235,7.90996 -6.781227,11.22409 -1.8112,2.10579 -3.98175,3.87586 -6.27564,5.41894 -0.69757,0.66166 0.0607,1.5963 0.85304,1.6392 2.5328,0.80629 5.2278,1.00069 7.857507,0.84529 0.827179,-0.33467 1.122557,-1.37195 1.850413,-1.90503 6.126403,-6.18066 13.241323,-11.4097 20.791215,-15.7525 4.412675,-2.41331 9.03797,-4.72931 14.055894,-5.50557 2.17886,-0.22648 4.435667,-0.28704 6.546401,0.34766 2.480399,-0.60981 4.910569,-1.56374 7.297552,-2.50925 9.313567,-3.8351 17.697857,-10.09017 23.682247,-18.21996 0.47941,-0.99042 -0.77683,-1.40555 -1.52472,-1.46884 -5.13471,-0.92873 -9.68257,-3.8449 -13.31899,-7.50128 -0.94324,-0.81728 -1.59493,0.48657 -2.04998,1.16825 -1.911256,2.3904 -4.218593,4.45748 -7.096003,5.56518 -6.192863,-6.32342 -9.935277,-14.9828 -10.318074,-23.791772 -0.18631,-4.713509 0.20136,-9.489066 1.754143,-13.973791 2.736533,-1.972243 5.974342,-3.390786 9.279271,-3.972686 2.487259,-0.44371 5.088559,-0.213538 7.454433,0.739459 1.33814,-0.08651 2.05921,-1.487713 3.17674,-2.078547 3.5544,-2.512064 8.10822,-3.417547 12.34184,-2.427516 0.86119,0.05917 1.95746,0.962529 2.64153,0.05129 0.39902,-1.034402 -0.78039,-1.795138 -1.25787,-2.578034 C 111.22321,61.638014 99.959845,55.93377 88.450903,56.028562 Z M 63.664354,90.870479 c 1.447648,0.01667 2.89081,0.215152 4.302421,0.530016 -0.02539,0.758923 -0.578142,0.560746 -1.126071,0.422364 -2.954912,-0.375843 -6.122506,-0.436478 -8.844004,0.956484 -4.566941,2.171312 -7.029021,7.051502 -8.133555,11.767167 -0.2612,1.0124 -0.399151,2.05103 -0.640235,3.06744 -0.760017,0.0649 -0.621699,-0.48471 -0.47445,-1.02431 0.944292,-4.96827 2.812177,-10.473484 7.275524,-13.45804 2.250543,-1.486751 4.941062,-2.294761 7.64037,-2.261121 z M 61.535431,96.3172 c 2.933391,0.08556 5.349583,2.878831 5.16492,5.78592 -0.01553,3.0154 -2.85286,5.70995 -5.890641,5.37955 -3.48566,0.10751 -6.173162,-3.7706 -5.174079,-7.04013 0.622624,-2.514089 3.152621,-4.387053 5.752945,-4.12473 l 0.144107,-6.1e-4 z m -34.57294,38.58837 c -0.38998,0.32555 -0.80094,0.8639 -0.99622,1.21849 0.17901,-0.49876 0.65095,-0.99788 0.99622,-1.21849 z m 2.17441,1.74301 c 0.34903,-0.0681 0.83634,0.43443 0.82587,0.52269 -0.20035,-0.45679 -0.9905,-0.4719 -1.20689,-0.46315 0.11999,-0.0495 0.25188,-0.0667 0.38102,-0.0595 z m 0.73488,2.13136 c -0.0201,0.32812 -1.27625,1.04443 -0.59474,0.60971 0.21677,-0.14106 0.50522,-0.4657 0.59474,-0.60971 z m -3.31108,0.3389 c 0.18471,0.27649 1.40687,0.73402 0.57979,0.40301 -0.15942,-0.0427 -0.70602,-0.49561 -0.57979,-0.40301 z"
       id="path5993" />
    <path
       id="path3105"
       style="fill:none;fill-opacity:1;stroke:#000000;stroke-width:3.5;stroke-linecap:butt;stroke-linejoin:round;stroke-miterlimit:50;stroke-dasharray:none;stroke-dashoffset:2.1;stroke-opacity:1;paint-order:fill markers stroke"
       d="m 21.470939,147.27837 c 0,0 1.350289,19.64114 22.636261,18.19444 -0.903825,-1.81174 29.361672,-27.96964 42.092446,-22.72783 M 52.973495,71.200948 c 37.395337,-33.795111 63.526215,-4.303716 63.526215,-4.303716 23.69906,24.264998 7.86729,65.509098 -30.300064,75.847748 -0.248493,0.0674 2.160823,-0.62613 2.160823,-0.62613 M 52.973495,71.200948 c 0,0 -35.946664,45.889532 -31.502556,76.077422" />
    <circle
       style="fill:#fff4c9;fill-opacity:1;stroke:#000000;stroke-width:1.13938;stroke-linecap:round;stroke-linejoin:round;stroke-miterlimit:4;stroke-dasharray:none;stroke-opacity:1;paint-order:fill markers stroke"
       id="path11671"
       cx="82.900375"
       cy="61.014675"
       r="9.9072876" />
    <circle
       style="fill:#fff4c9;fill-opacity:1;stroke:#000000;stroke-width:1.01917;stroke-linecap:round;stroke-linejoin:round;stroke-miterlimit:4;stroke-dasharray:none;stroke-opacity:1;paint-order:fill markers stroke"
       id="path11671-5"
       cx="95.059097"
       cy="59.135605"
       r="8.862052" />
    <circle
       style="fill:#fff4c9;fill-opacity:1;stroke:#000000;stroke-width:1.01917;stroke-linecap:round;stroke-linejoin:round;stroke-miterlimit:4;stroke-dasharray:none;stroke-opacity:1;paint-order:fill markers stroke"
       id="path11671-5-2"
       cx="87.53833"
       cy="64.403198"
       r="8.862052" />
    <circle
       style="fill:#fff4c9;fill-opacity:1;stroke:#000000;stroke-width:0.790667;stroke-linecap:round;stroke-linejoin:round;stroke-miterlimit:4;stroke-dasharray:none;stroke-opacity:1;paint-order:fill markers stroke"
       id="path11671-5-2-7"
       cx="77.920921"
       cy="71.293213"
       r="6.8751349" />
    <circle
       style="fill:#fff4c9;fill-opacity:1;stroke:#000000;stroke-width:1.01917;stroke-linecap:round;stroke-linejoin:round;stroke-miterlimit:4;stroke-dasharray:none;stroke-opacity:1;paint-order:fill markers stroke"
       id="path11671-5-2-1"
       cx="75.189171"
       cy="62.683701"
       r="8.862052" />
    <circle
       style="fill:#fff4c9;fill-opacity:1;stroke:#000000;stroke-width:1.0959;stroke-linecap:round;stroke-linejoin:round;stroke-miterlimit:4;stroke-dasharray:none;stroke-opacity:1;paint-order:fill markers stroke"
       id="path11671-5-2-1-0"
       cx="68.712593"
       cy="74.417404"
       r="9.5291824" />
    <circle
       style="fill:#fff4c9;fill-opacity:1;stroke:#000000;stroke-width:0.840673;stroke-linecap:round;stroke-linejoin:round;stroke-miterlimit:4;stroke-dasharray:none;stroke-opacity:1;paint-order:fill markers stroke"
       id="path11671-5-2-6"
       cx="97.93351"
       cy="66.04454"
       r="7.3099566" />
    <circle
       style="fill:#fff4c9;fill-opacity:1;stroke:#000000;stroke-width:0.714457;stroke-linecap:round;stroke-linejoin:round;stroke-miterlimit:4;stroke-dasharray:none;stroke-opacity:1;paint-order:fill markers stroke"
       id="path11671-5-2-6-9"
       cx="101.62896"
       cy="56.984596"
       r="6.2124596" />
    <circle
       style="fill:#fff4c9;fill-opacity:1;stroke:#000000;stroke-width:0.714457;stroke-linecap:round;stroke-linejoin:round;stroke-miterlimit:4;stroke-dasharray:none;stroke-opacity:1;paint-order:fill markers stroke"
       id="path11671-5-2-6-9-3"
       cx="119.52024"
       cy="63.300259"
       r="6.2124596" />
    <circle
       style="fill:#fff4c9;fill-opacity:1;stroke:#000000;stroke-width:1.08717;stroke-linecap:round;stroke-linejoin:round;stroke-miterlimit:4;stroke-dasharray:none;stroke-opacity:1;paint-order:fill markers stroke"
       id="path11671-5-2-6-5"
       cx="109.65739"
       cy="62.292904"
       r="9.4533262" />
    <circle
       style="fill:#fff4c9;fill-opacity:1;stroke:#000000;stroke-width:0.849174;stroke-linecap:round;stroke-linejoin:round;stroke-miterlimit:4;stroke-dasharray:none;stroke-opacity:1;paint-order:fill markers stroke"
       id="path11671-5-2-6-5-0"
       cx="107.85579"
       cy="70.69709"
       r="7.3838658" />
    <circle
       style="fill:#fff4c9;fill-opacity:1;stroke:#000000;stroke-width:0.981401;stroke-linecap:round;stroke-linejoin:round;stroke-miterlimit:4;stroke-dasharray:none;stroke-opacity:1;paint-order:fill markers stroke"
       id="path11671-5-2-6-5-0-0"
       cx="120.32658"
       cy="70.892647"
       r="8.5336246" />
    <circle
       style="fill:#fff4c9;fill-opacity:1;stroke:#000000;stroke-width:0.76503;stroke-linecap:round;stroke-linejoin:round;stroke-miterlimit:4;stroke-dasharray:none;stroke-opacity:1;paint-order:fill markers stroke"
       id="path11671-5-2-6-5-0-0-9"
       cx="125.01377"
       cy="89.532402"
       r="6.6522012" />
    <circle
       style="fill:#fff4c9;fill-opacity:1;stroke:#000000;stroke-width:0.891247;stroke-linecap:round;stroke-linejoin:round;stroke-miterlimit:4;stroke-dasharray:none;stroke-opacity:1;paint-order:fill markers stroke"
       id="path11671-5-2-6-5-0-0-9-3"
       cx="128.07628"
       cy="79.42627"
       r="7.7496982" />
  </g>
  <g
     inkscape:label="Main"
     inkscape:groupmode="layer"
     id="layer1">
    <path
       sodipodi:type="spiral"
       style="fill:none;fill-rule:evenodd;stroke:#000000"
       id="path2089"
       sodipodi:cx="149.00984"
       sodipodi:cy="87.112679"
       sodipodi:expansion="300"
       sodipodi:revolution="1"
       sodipodi:radius="32.061047"
       sodipodi:argument="-5.0852709"
       sodipodi:t0="0"
       d="M 149.00984,87.112679 C 145464.53,371564.83 223725.44,571621.49 177178.54,1183571.5 -790008800,10389724000 711395840,21214540000 -2370646200,31166785000 -5.767422e13,1.8625977e14 -1.1105111e14,3.7387329e14 -1.7302456e14,5.5871491e14" />
    <ellipse
       style="fill:#ffffff;fill-opacity:1;stroke:#000000;stroke-width:3.6;stroke-linecap:butt;stroke-linejoin:round;stroke-miterlimit:0;stroke-dasharray:none;stroke-dashoffset:0;stroke-opacity:1;paint-order:fill markers stroke"
       id="path5007"
       cx="61.072323"
       cy="101.90336"
       rx="4.5799999"
       ry="4.5801678" />
    <path
       style="fill:none;stroke:#000000;stroke-width:3.4;stroke-linecap:round;stroke-linejoin:miter;stroke-miterlimit:4;stroke-dasharray:none;stroke-opacity:1"
       d="m 68.540174,91.924063 c 0,0 -16.721883,-6.012285 -19.726807,16.346417"
       id="path3526"
       sodipodi:nodetypes="cc" />
    <path
       style="fill:none;stroke:#000000;stroke-width:0.8;stroke-linecap:round;stroke-linejoin:miter;stroke-miterlimit:4;stroke-dasharray:none;stroke-opacity:1"
       d="m 69.557948,102.34536 c -0.05717,0.0655 -1.057419,8.36692 -9.682398,8.10133"
       id="path3869"
       sodipodi:nodetypes="cc" />
    <path
       sodipodi:type="spiral"
       style="fill:none;fill-rule:evenodd;stroke:#000000;stroke-width:1.4;stroke-miterlimit:4;stroke-dasharray:none"
       id="path2216"
       sodipodi:cx="28.449957"
       sodipodi:cy="137.48207"
       sodipodi:expansion="0.47999999"
       sodipodi:revolution="1"
       sodipodi:radius="3.0969205"
       sodipodi:argument="-8.0315781"
       sodipodi:t0="0"
       d="m 28.449957,137.48207 c -0.223499,-1.24521 1.153635,-1.0866 1.566953,-0.28125 0.507762,0.98938 -0.200091,2.13378 -1.174684,2.46675 -1.304092,0.44554 -2.680555,-0.42915 -3.047328,-1.70895 -0.442268,-1.54323 0.588791,-3.13063 2.107944,-3.52476" />
    <path
       style="fill:none;stroke:#000000;stroke-width:2;stroke-linecap:round;stroke-linejoin:miter;stroke-miterlimit:4;stroke-dasharray:none;stroke-opacity:1"
       d="m 32.054812,162.81634 c 0,0 9.087899,-2.72042 15.441014,-17.7877"
       id="path2333"
       sodipodi:nodetypes="cc" />
    <path
       style="fill:#e6d58e;fill-opacity:1;stroke:#000000;stroke-width:2.01512;stroke-linecap:butt;stroke-linejoin:miter;stroke-miterlimit:4;stroke-dasharray:none;stroke-opacity:1"
       d="m 93.333297,118.25696 c 13.534613,-5.83044 14.779183,-36.042689 14.779183,-36.042689 -6.53396,-19.96482 -23.179978,-6.183794 -23.179978,-6.183794 0,0 -7.467372,23.321745 8.400795,42.226483 z"
       id="path4104" />
    <path
       sodipodi:type="spiral"
       style="fill:none;fill-rule:evenodd;stroke:#000000;stroke-width:38.1258;stroke-linecap:round;stroke-linejoin:round;stroke-miterlimit:4;stroke-dasharray:none"
       id="path1209"
       sodipodi:cx="-116.62283"
       sodipodi:cy="61.898949"
       sodipodi:expansion="1"
       sodipodi:revolution="1"
       sodipodi:radius="97.640114"
       sodipodi:argument="-5.4256811"
       sodipodi:t0="0"
       d="m -116.62283,61.898949 c 9.60981,11.10615 -10.22973,18.433215 -18.45916,15.972137 -22.30123,-6.66937 -23.8478,-35.963226 -13.48512,-52.890443 18.53642,-30.2788192 61.037906,-30.912893 87.321735,-10.998106 38.572576,29.22575 38.215751,86.462993 8.511091,121.753023"
       transform="matrix(-0.25407687,-0.61253971,-0.56743201,0.32430971,119.85566,-6.0648636)" />
    <path
       sodipodi:type="spiral"
       style="fill:none;fill-rule:evenodd;stroke:#ae770f;stroke-width:18.3004;stroke-linecap:round;stroke-linejoin:round;stroke-miterlimit:4;stroke-dasharray:none;stroke-opacity:1"
       id="path1209-1"
       sodipodi:cx="-116.62283"
       sodipodi:cy="61.898949"
       sodipodi:expansion="1"
       sodipodi:revolution="1"
       sodipodi:radius="97.640114"
       sodipodi:argument="-5.4256811"
       sodipodi:t0="0"
       transform="matrix(-0.25407687,-0.61253971,-0.56743201,0.32430971,119.85566,-6.0648636)"
       d="m -116.62283,61.898949 c 9.60981,11.10615 -10.22973,18.433215 -18.45916,15.972137 -22.30123,-6.66937 -23.8478,-35.963226 -13.48512,-52.890443 18.53642,-30.2788192 61.037906,-30.912893 87.321735,-10.998106 38.572576,29.22575 38.215751,86.462993 8.511091,121.753023" />
  </g>
  <g
     inkscape:groupmode="layer"
     id="layer3"
     inkscape:label="OverHorns">
    <circle
       style="fill:#fff4c9;fill-opacity:1;stroke:#000000;stroke-width:0.840673;stroke-linecap:round;stroke-linejoin:round;stroke-miterlimit:4;stroke-dasharray:none;stroke-opacity:1;paint-order:fill markers stroke"
       id="path11671-5-2-6-7"
       cx="43.077152"
       cy="85.773216"
       r="7.3099566" />
    <circle
       style="fill:#fff4c9;fill-opacity:1;stroke:#000000;stroke-width:0.840673;stroke-linecap:round;stroke-linejoin:round;stroke-miterlimit:4;stroke-dasharray:none;stroke-opacity:1;paint-order:fill markers stroke"
       id="path11671-5-2-6-7-7"
       cx="48.533108"
       cy="83.541245"
       r="7.3099566" />
    <circle
       style="fill:#fff4c9;fill-opacity:1;stroke:#000000;stroke-width:0.728159;stroke-linecap:round;stroke-linejoin:round;stroke-miterlimit:4;stroke-dasharray:none;stroke-opacity:1;paint-order:fill markers stroke"
       id="path11671-5-2-6-7-7-9"
       cx="56.22316"
       cy="70.0457"
       r="6.3316088" />
    <circle
       style="fill:#fff4c9;fill-opacity:1;stroke:#000000;stroke-width:0.728159;stroke-linecap:round;stroke-linejoin:round;stroke-miterlimit:4;stroke-dasharray:none;stroke-opacity:1;paint-order:fill markers stroke"
       id="path11671-5-2-6-7-7-9-4"
       cx="64.71418"
       cy="71.293213"
       r="6.3316088" />
    <circle
       style="fill:#fff4c9;fill-opacity:1;stroke:#000000;stroke-width:0.894574;stroke-linecap:round;stroke-linejoin:round;stroke-miterlimit:4;stroke-dasharray:none;stroke-opacity:1;paint-order:fill markers stroke"
       id="path11671-5-2-6-7-1"
       cx="58.225002"
       cy="78.822273"
       r="7.7786264" />
    <circle
       style="fill:#fff4c9;fill-opacity:1;stroke:#000000;stroke-width:0.96764;stroke-linecap:round;stroke-linejoin:round;stroke-miterlimit:4;stroke-dasharray:none;stroke-opacity:1;paint-order:fill markers stroke"
       id="path11671-5-2-6-7-1-6"
       cx="45.123585"
       cy="76.808281"
       r="8.4139624" />
  </g>
</svg>
